<?xml version="1.0" encoding="UTF-8"?>
<svg id="_レイヤー_2" data-name="レイヤー 2" xmlns="http://www.w3.org/2000/svg" viewBox="0 0 18.77 19.31">
  <defs>
    <style>
      .cls-1 {
        fill: #fff;
      }
    </style>
  </defs>
  <g id="content">
    <path class="cls-1" d="M5.65,19.31c-.49,0-.9-.17-1.24-.51-.34-.34-.51-.75-.51-1.24s.17-.9.51-1.24c.34-.34.75-.51,1.24-.51s.9.17,1.24.51c.34.34.51.75.51,1.24s-.17.9-.51,1.24c-.34.34-.75.51-1.24.51ZM15.35,19.31c-.49,0-.9-.17-1.24-.51-.34-.34-.51-.75-.51-1.24s.17-.9.51-1.24c.34-.34.75-.51,1.24-.51s.9.17,1.24.51c.34.34.51.75.51,1.24,0,.49-.17.9-.51,1.24-.34.34-.75.51-1.24.51ZM4.52,3.5l2.53,5.31h6.82c.06,0,.11-.01.15-.04.04-.03.08-.07.12-.12l2.68-4.88c.04-.07.04-.13,0-.19-.03-.05-.09-.08-.16-.08H4.52ZM3.8,2h13.88c.41,0,.72.17.93.52.21.35.22.7.03,1.07l-3.2,5.8c-.16.29-.38.51-.65.67-.27.16-.57.24-.89.24h-7.3l-1.16,2.12c-.05.08-.05.16,0,.25.05.09.12.13.22.13h11.44v1.5H5.65c-.67,0-1.17-.29-1.5-.86-.34-.58-.35-1.15-.04-1.72l1.43-2.57L1.9,1.5H0V0h2.85l.95,2ZM7.05,8.81h7-7Z"/>
  </g>
</svg>