<svg width="901" height="126" viewBox="0 0 901 126" fill="none" xmlns="http://www.w3.org/2000/svg">
<path d="M837.72 0.839844H62.7197C28.2019 0.839844 0.219727 28.822 0.219727 63.3398C0.219727 97.8576 28.2019 125.84 62.7197 125.84H837.72C872.238 125.84 900.22 97.8576 900.22 63.3398C900.22 28.822 872.238 0.839844 837.72 0.839844Z" fill="url(#paint0_linear_2206_5)"/>
<g style="mix-blend-mode:multiply" opacity="0.05">
<path d="M837.72 0.839844H62.7197C28.2019 0.839844 0.219727 28.822 0.219727 63.3398C0.219727 97.8576 28.2019 125.84 62.7197 125.84H837.72C872.238 125.84 900.22 97.8576 900.22 63.3398C900.22 28.822 872.238 0.839844 837.72 0.839844Z" fill="#40210F"/>
</g>
<path d="M659.399 56.2898H654.559C654.639 63.8498 654.599 71.6498 654.439 79.7698L651.359 79.6898C651.479 73.8498 651.519 68.7298 651.519 64.3298V62.5698C648.759 67.6498 645.479 72.1298 641.679 76.0498L639.559 74.0098C641.919 71.5698 644.119 68.7698 646.239 65.5698C648.359 62.4098 650.039 59.2898 651.279 56.2898H641.279V53.3298H651.439L651.359 47.5698L654.439 47.5298L654.519 53.3298H659.399V56.2898ZM693.999 49.3698C693.999 50.1698 693.719 50.8498 693.159 51.4098C692.559 52.0098 691.879 52.2898 691.119 52.2898C690.319 52.2898 689.639 52.0098 689.079 51.4098C688.479 50.8498 688.199 50.1698 688.199 49.3698C688.199 48.6098 688.479 47.9298 689.079 47.3298C689.639 46.7698 690.319 46.4898 691.119 46.4898C691.879 46.4898 692.559 46.7698 693.159 47.3298C693.719 47.9298 693.999 48.6098 693.999 49.3698ZM686.879 49.8898C686.879 57.7298 686.359 63.4098 685.279 66.9698C683.519 72.7698 679.919 76.9698 674.479 79.5698L673.119 76.7698C677.519 74.6498 680.479 71.2898 682.039 66.7298C683.079 63.7298 683.639 59.1298 683.719 53.0098H670.199V49.8898H686.879ZM692.479 49.3698C692.479 49.0098 692.359 48.6898 692.079 48.4098C691.799 48.1298 691.479 48.0098 691.119 48.0098C690.719 48.0098 690.399 48.1298 690.119 48.4098C689.839 48.6898 689.719 49.0098 689.719 49.3698C689.719 49.7698 689.839 50.0898 690.119 50.3698C690.399 50.6498 690.719 50.7698 691.119 50.7698C691.479 50.7698 691.799 50.6498 692.079 50.3698C692.359 50.0898 692.479 49.7698 692.479 49.3698ZM707.719 54.0498L705.919 56.3298L699.479 51.2498L701.239 49.0098L707.719 54.0498ZM705.479 60.7698L703.679 63.0498L697.599 58.1698L699.399 55.9298L705.479 60.7698ZM718.439 56.9698C717.759 63.3298 716.199 68.1698 713.679 71.5298C710.879 75.2898 706.519 77.8098 700.559 79.0498L699.919 76.0498C705.199 74.9698 709.039 72.7698 711.399 69.4498C713.439 66.6098 714.799 62.3298 715.399 56.6098L718.439 56.9698ZM742.639 78.9298H739.919V78.1698H729.319V75.4498H739.919V68.2898H730.719V65.6098H739.919V59.3698H729.919V56.6498H742.639V78.9298ZM763.639 55.0498L762.519 57.8498C760.039 56.8498 757.559 56.1298 755.039 55.6498L755.599 52.6898C758.279 53.2098 760.959 53.9698 763.639 55.0498ZM776.039 50.1298C775.599 57.7698 774.199 63.8098 771.799 68.2498C768.759 73.8498 763.919 77.4898 757.319 79.1298L756.559 76.1298C762.479 74.6498 766.759 71.3698 769.359 66.2498C771.359 62.3698 772.559 56.9298 772.959 49.9698L776.039 50.1298ZM804.479 52.6498C804.479 53.4498 804.199 54.1298 803.639 54.6898C803.079 55.2498 802.399 55.5298 801.599 55.5298C800.799 55.5298 800.119 55.2498 799.559 54.6898C798.999 54.1298 798.719 53.4498 798.719 52.6498C798.719 51.8498 798.999 51.1698 799.559 50.6098C800.119 50.0498 800.799 49.7698 801.599 49.7698C802.399 49.7698 803.079 50.0498 803.639 50.6098C804.199 51.1698 804.479 51.8498 804.479 52.6498ZM805.159 77.2498L802.039 77.6898C801.239 72.2098 799.039 66.2098 795.399 59.7698L798.119 58.2498C801.959 65.0098 804.319 71.3698 805.159 77.2498ZM792.719 51.1698C792.239 56.2098 791.479 60.6498 790.479 64.5298C789.159 69.4498 787.319 74.0898 784.999 78.4498L782.239 76.9698C784.439 72.8498 786.199 68.4098 787.439 63.7298C788.439 60.0098 789.159 55.7298 789.599 50.8898L792.719 51.1698ZM802.999 52.6498C802.999 52.2898 802.879 51.9298 802.599 51.6498C802.319 51.3698 801.959 51.2498 801.599 51.2498C801.239 51.2498 800.919 51.3698 800.639 51.6498C800.359 51.9298 800.199 52.2898 800.199 52.6498C800.199 53.0098 800.359 53.3298 800.639 53.6098C800.919 53.8898 801.239 54.0098 801.599 54.0098C801.959 54.0098 802.319 53.8898 802.599 53.6098C802.879 53.3298 802.999 53.0098 802.999 52.6498ZM832.599 64.6498H812.439V61.6498H832.599V64.6498ZM852.719 59.3698L850.159 60.6898L846.599 53.7698L849.159 52.4498L852.719 59.3698ZM860.839 50.5698C860.559 58.0898 859.759 63.7298 858.479 67.4498C856.439 73.2898 852.759 77.3298 847.359 79.6098L846.159 76.7698C850.879 74.8098 854.079 71.0898 855.799 65.6498C856.839 62.4098 857.479 57.3698 857.759 50.4498L860.839 50.5698ZM846.799 60.4098L844.199 61.6898L840.519 54.3698L843.119 53.0498L846.799 60.4098Z" fill="white"/>
<path d="M368.649 54.2498L367.049 55.4898C366.009 54.1298 364.969 52.8898 363.969 51.7298L365.489 50.4098C366.529 51.5698 367.569 52.8498 368.649 54.2498ZM365.969 56.6098L364.369 57.7698C363.449 56.5298 362.409 55.2898 361.329 54.0498L362.809 52.6898C363.969 54.0098 365.049 55.2898 365.969 56.6098ZM369.649 77.1298L367.049 78.8898L352.489 57.2098L345.369 65.7698L342.969 63.7698L351.409 53.6098L353.929 53.7298L369.649 77.1298ZM394.849 64.6498H374.689V61.6498H394.849V64.6498ZM424.449 77.2098L421.729 78.4498C419.809 74.2498 417.529 70.7698 414.849 67.9698C412.169 72.4098 408.969 76.2098 405.249 79.2898L403.289 76.9298C410.209 71.1298 415.049 63.2098 417.889 53.1698L405.889 53.6898L405.769 50.6098L419.809 49.9698L421.369 51.8898C420.129 56.9698 418.449 61.4098 416.409 65.2498C419.529 68.3698 422.209 72.3698 424.449 77.2098ZM452.969 81.3698L450.609 82.8098C447.089 77.0098 445.329 70.6898 445.329 63.8498C445.329 57.0098 447.089 50.6898 450.609 44.8898L452.969 46.3298C449.729 51.6898 448.089 57.5298 448.089 63.8498C448.089 70.1698 449.729 76.0098 452.969 81.3698ZM474.489 48.8098L472.689 50.7698C471.209 49.3698 469.689 48.2098 468.049 47.2498L469.409 44.9698C471.169 46.0498 472.849 47.3298 474.489 48.8098ZM481.089 53.9698H461.569V51.3298H481.089V53.9698ZM478.009 63.8498H475.369V63.2898H466.969V63.8498H464.329V55.4098H478.009V63.8498ZM482.089 81.6898H476.569V79.0498H479.489V67.9698H462.849V80.9298H460.209V65.3298H482.089V81.6898ZM476.369 78.1698H473.849V77.5698H468.489V78.1698H465.969V69.7698H476.369V78.1698ZM475.369 60.6498V58.0498H466.969V60.6498H475.369ZM473.849 75.0898V72.2898H468.489V75.0898H473.849ZM510.449 55.0498H504.889C505.009 60.5298 504.729 64.9698 504.009 68.4098C502.969 73.3298 500.969 77.2498 497.969 80.1298L495.809 77.8498C498.249 75.4898 499.889 72.2898 500.809 68.2498C501.489 65.4098 501.809 61.7698 501.809 57.2498C501.809 56.5298 501.809 55.8098 501.769 55.0498H496.089C495.209 58.9298 493.609 62.1698 491.329 64.7298L489.089 62.7298C491.929 59.5698 493.529 54.7698 493.929 48.3298L496.969 48.5298C496.849 49.9298 496.769 51.1298 496.649 52.0498H510.449V55.0498ZM538.049 61.6098H528.529C528.529 64.6098 528.609 67.4098 528.809 70.0098C528.849 70.9298 528.929 71.6098 529.009 72.0498C529.129 72.8098 529.329 73.4498 529.569 73.9698C530.169 75.1698 531.369 76.0498 533.169 76.5698C534.089 76.8498 535.609 77.0898 537.729 77.3298L537.409 80.3698C533.329 79.9298 530.529 79.1698 529.009 78.0098C527.129 76.5698 526.009 73.9698 525.729 70.2498C525.529 67.6498 525.449 64.7698 525.449 61.6098H519.249V58.6498H525.449C525.489 56.7698 525.529 54.6098 525.649 52.1298H521.409V49.1698H534.289V52.1298H528.729C528.609 54.6098 528.569 56.7698 528.529 58.6498H538.049V61.6098ZM554.609 63.8498C554.609 70.6898 552.849 77.0098 549.329 82.8098L546.969 81.3698C550.209 76.0098 551.849 70.1698 551.849 63.8498C551.849 57.5298 550.209 51.6898 546.969 46.3298L549.329 44.8898C552.849 50.6898 554.609 57.0098 554.609 63.8498Z" fill="white"/>
<path d="M65.1997 55.0498H59.6397C59.7597 60.5298 59.4797 64.9698 58.7597 68.4098C57.7197 73.3298 55.7197 77.2498 52.7197 80.1298L50.5597 77.8498C52.9997 75.4898 54.6397 72.2898 55.5597 68.2498C56.2397 65.4098 56.5597 61.7698 56.5597 57.2498C56.5597 56.5298 56.5597 55.8098 56.5197 55.0498H50.8397C49.9597 58.9298 48.3597 62.1698 46.0797 64.7298L43.8397 62.7298C46.6797 59.5698 48.2797 54.7698 48.6797 48.3298L51.7197 48.5298C51.5997 49.9298 51.5197 51.1298 51.3997 52.0498H65.1997V55.0498ZM92.7997 61.6098H83.2797C83.2797 64.6098 83.3597 67.4098 83.5597 70.0098C83.5997 70.9298 83.6797 71.6098 83.7597 72.0498C83.8797 72.8098 84.0797 73.4498 84.3197 73.9698C84.9197 75.1698 86.1197 76.0498 87.9197 76.5698C88.8397 76.8498 90.3597 77.0898 92.4797 77.3298L92.1597 80.3698C88.0797 79.9298 85.2797 79.1698 83.7597 78.0098C81.8797 76.5698 80.7597 73.9698 80.4797 70.2498C80.2797 67.6498 80.1997 64.7698 80.1997 61.6098H73.9997V58.6498H80.1997C80.2397 56.7698 80.2797 54.6098 80.3997 52.1298H76.1597V49.1698H89.0397V52.1298H83.4797C83.3597 54.6098 83.3197 56.7698 83.2797 58.6498H92.7997V61.6098ZM124.2 58.9298H119.76V64.5698H117.12V64.1298H111.76V64.5698H109.12V58.9298H104.92C104.88 64.0898 104.72 67.9298 104.48 70.4498C104.12 74.7698 103.4 78.5298 102.32 81.7698L99.6797 80.8898C101 77.0498 101.8 71.8498 102.08 65.3298C102.16 63.4098 102.2 58.1298 102.2 49.4498H112.44C111.68 48.6898 110.72 47.8498 109.56 47.0098L111.16 44.9298C113.36 46.5698 114.96 48.0898 115.92 49.4498H123.56V52.2098H104.96V56.2898H109.12V53.1698H111.76V56.2898H117.12V53.1698H119.76V56.2898H124.2V58.9298ZM123.92 79.8898L123 82.3698C119.96 81.2098 117.16 79.6898 114.64 77.8098C112.36 79.6098 109.88 81.0098 107.2 82.0498L106.24 79.6098C108.52 78.7298 110.64 77.5698 112.56 76.0898C110.6 74.3298 109.08 72.5698 108.08 70.8098L110.36 69.4898C111.28 71.1298 112.68 72.7298 114.56 74.3698C116.44 72.5698 117.8 70.7698 118.6 68.8898H107.28V66.2498H120.36L121.68 67.8498C121.12 70.6098 119.44 73.3298 116.68 76.0098C118.88 77.6098 121.32 78.8898 123.92 79.8898ZM117.12 61.4898V58.9298H111.76V61.4898H117.12ZM153.2 62.7298L150.84 63.6898C149.84 61.1698 148.28 58.6098 146.16 56.0898L148.08 54.4898C150.36 57.2098 152.08 59.9698 153.2 62.7298ZM152.56 52.6498H145.36V65.8898H141.12V63.3698H142.84V52.6498H140.08C140.08 55.5698 139.68 58.0898 138.92 60.1298C138 62.4498 136.52 64.4498 134.4 66.1698L132.84 64.2098C136 61.6098 137.6 58.0498 137.6 53.5298V52.6498H129.68V50.1298H140.36C139.6 49.2498 138.56 48.3298 137.32 47.3298L138.96 45.2498C141.08 46.9298 142.6 48.4498 143.52 49.8498L143.08 50.1298H152.56V52.6498ZM135.48 55.2498C134.56 58.2498 132.76 60.9298 130.08 63.3298L128.4 61.4898C130.76 59.3698 132.32 57.0498 133.08 54.5298L135.48 55.2498ZM152.64 79.4098L152.28 82.0498C148.36 81.5298 144.6 79.9698 141.04 77.4498C137.76 79.7298 134.28 81.2498 130.64 82.0098L130.12 79.4498C133.12 78.8098 136.04 77.5698 138.84 75.7298C137.6 74.6498 136.64 73.6498 135.96 72.8098L138 71.1298C138.76 72.0498 139.76 73.0098 141.04 74.0898C142.52 72.9298 143.84 71.6898 145.04 70.3298H136.84C134.8 72.8898 132.52 74.9298 129.96 76.4498L128.6 74.1698C130.32 73.1698 132 71.7698 133.64 70.0098C135.24 68.2898 136.48 66.5298 137.36 64.7298L139.76 65.8498C139.52 66.3698 139.16 66.9698 138.72 67.6898H147.8L148.88 69.7698C147.56 71.7298 145.72 73.7298 143.28 75.7298C146.28 77.7698 149.4 78.9698 152.64 79.4098ZM182.12 79.1298L181.36 81.7698C176.72 80.4498 172.56 77.8898 168.88 74.1698C167.04 77.4498 163.92 79.9698 159.48 81.7298L158.48 79.1698C162.64 77.4898 165.44 75.0898 166.88 71.9698C165.96 70.8898 165.04 69.6898 164.2 68.4498L166.48 66.8898C166.92 67.5298 167.4 68.1698 167.92 68.8498C168.08 68.0898 168.2 67.2498 168.32 66.4098H163.4V67.2498H160.76V52.5698H168.6V49.5298H159.4V46.8898H180.6V49.5298H171.36V52.5698H179.24V67.2498H176.6V66.4098H171.12C170.92 68.2898 170.56 69.9298 170.08 71.4098C173.64 75.2498 177.64 77.8098 182.12 79.1298ZM176.6 58.1698V55.2098H171.36V58.1698H176.6ZM176.6 63.7698V60.8098H171.36C171.36 61.9698 171.36 62.9698 171.32 63.7698H176.6ZM168.6 58.1698V55.2098H163.4V58.1698H168.6ZM168.6 60.8098H163.4V63.7698H168.56C168.6 62.9298 168.6 62.1298 168.6 61.3698V60.8098ZM209.48 52.6498C209.48 53.4498 209.2 54.1298 208.64 54.6898C208.08 55.2498 207.4 55.5298 206.6 55.5298C205.8 55.5298 205.12 55.2498 204.56 54.6898C204 54.1298 203.72 53.4498 203.72 52.6498C203.72 51.8498 204 51.1698 204.56 50.6098C205.12 50.0498 205.8 49.7698 206.6 49.7698C207.4 49.7698 208.08 50.0498 208.64 50.6098C209.2 51.1698 209.48 51.8498 209.48 52.6498ZM210.16 77.2498L207.04 77.6898C206.24 72.2098 204.04 66.2098 200.4 59.7698L203.12 58.2498C206.96 65.0098 209.32 71.3698 210.16 77.2498ZM197.72 51.1698C197.24 56.2098 196.48 60.6498 195.48 64.5298C194.16 69.4498 192.32 74.0898 190 78.4498L187.24 76.9698C189.44 72.8498 191.2 68.4098 192.44 63.7298C193.44 60.0098 194.16 55.7298 194.6 50.8898L197.72 51.1698ZM208 52.6498C208 52.2898 207.88 51.9298 207.6 51.6498C207.32 51.3698 206.96 51.2498 206.6 51.2498C206.24 51.2498 205.92 51.3698 205.64 51.6498C205.36 51.9298 205.2 52.2898 205.2 52.6498C205.2 53.0098 205.36 53.3298 205.64 53.6098C205.92 53.8898 206.24 54.0098 206.6 54.0098C206.96 54.0098 207.32 53.8898 207.6 53.6098C207.88 53.3298 208 53.0098 208 52.6498ZM237.6 64.6498H217.44V61.6498H237.6V64.6498ZM257.72 59.3698L255.16 60.6898L251.6 53.7698L254.16 52.4498L257.72 59.3698ZM265.84 50.5698C265.56 58.0898 264.76 63.7298 263.48 67.4498C261.44 73.2898 257.76 77.3298 252.36 79.6098L251.16 76.7698C255.88 74.8098 259.08 71.0898 260.8 65.6498C261.84 62.4098 262.48 57.3698 262.76 50.4498L265.84 50.5698ZM251.8 60.4098L249.2 61.6898L245.52 54.3698L248.12 53.0498L251.8 60.4098Z" fill="white"/>
<g opacity="0.3">
<path d="M572.141 39.6699C581.181 47.0099 589.901 55.4199 598.201 63.6099C606.401 71.9099 614.801 80.6199 622.141 89.6699C613.091 82.3299 604.371 73.93 596.081 65.73C587.881 57.43 579.491 48.7199 572.141 39.6699Z" fill="white"/>
<path d="M622.141 39.6699C614.801 48.7099 606.391 57.43 598.201 65.73C589.901 73.93 581.191 82.3299 572.141 89.6699C579.481 80.6199 587.881 71.8999 596.081 63.6099C604.381 55.4099 613.091 47.0199 622.141 39.6699Z" fill="white"/>
<path d="M280.811 39.6699C289.851 47.0099 298.57 55.4199 306.87 63.6099C315.07 71.9099 323.471 80.6199 330.811 89.6699C321.761 82.3299 313.04 73.93 304.75 65.73C296.55 57.43 288.161 48.7199 280.811 39.6699Z" fill="white"/>
<path d="M330.811 39.6699C323.471 48.7099 315.06 57.43 306.87 65.73C298.57 73.93 289.861 82.3299 280.811 89.6699C288.151 80.6199 296.55 71.8999 304.75 63.6099C313.05 55.4099 321.761 47.0199 330.811 39.6699Z" fill="white"/>
</g>
<defs>
<linearGradient id="paint0_linear_2206_5" x1="0.219727" y1="63.3398" x2="900.22" y2="63.3398" gradientUnits="userSpaceOnUse">
<stop stop-color="#F4A466"/>
<stop offset="0.5" stop-color="#FFB600"/>
<stop offset="1" stop-color="#FECE62"/>
</linearGradient>
</defs>
</svg>
