<svg width="376" height="230" viewBox="0 0 376 230" fill="none" xmlns="http://www.w3.org/2000/svg">
<path d="M20.8605 51.1797C14.5905 50.0997 10.3105 47.9297 7.98047 44.7397L2.74048 49.9297L0.0605469 47.2498L6.50049 40.9197V20.6296H1.03052V16.9197H10.2705V41.2598C11.0705 42.9698 12.4905 44.3399 14.4905 45.3599L12.7805 43.4197C14.7805 41.6497 16.4305 39.1998 17.8005 36.0698L21.0505 37.4897C19.6305 40.8497 17.7404 43.6498 15.4604 45.8098C19.5104 47.5198 26.2905 48.3796 35.9205 48.3796V52.1396C29.5405 52.1396 24.5205 51.7997 20.8705 51.1697L20.8605 51.1797ZM6.90051 12.8699C6.39051 11.2199 4.85052 8.76964 2.28052 5.62964L5.13049 3.23975C8.09049 6.76975 9.92054 9.61979 10.5505 11.7898L6.90051 12.8699ZM31.1805 18.9097H29.4705V23.0098H33.6305V26.5999H29.4705V32.0198H34.7705V35.6099H11.7405V32.0198H17.2705V26.5999H12.7705V23.0098H17.2705V18.9097C13.7905 18.9097 12.0305 17.5399 12.0305 14.8599V7.21973H19.1005V4.02979H12.6005V0.779785H22.2905V10.9797H19.1005V10.4697H15.2805V14.8599C15.2805 15.3699 15.5105 15.6597 15.9105 15.6597H18.8705C19.3805 15.6597 19.6705 14.6897 19.7805 12.6997L22.9705 12.8699C22.9105 14.2999 22.7404 15.3196 22.5704 15.8896C22.2904 16.9696 21.6605 17.7698 20.8005 18.3398V23.0098H25.8705V18.5098C24.4505 17.7698 23.7605 16.5699 23.7605 14.8599V7.21973H30.7705V4.02979H24.3304V0.779785H34.0205V10.9797H30.7705V10.4697H26.9504V14.8599C26.9504 15.3699 27.1804 15.6597 27.5804 15.6597H31.1705C31.6805 15.6597 31.9704 14.6897 32.0804 12.6997L35.2705 12.8699C35.0405 16.9199 33.6705 18.9097 31.1705 18.9097H31.1805ZM25.8805 26.6099H20.8105V32.0298H25.8805V26.6099ZM30.9504 46.4497C29.6404 43.5997 27.8205 40.9798 25.3605 38.5298L27.9305 35.9597C30.6705 38.7497 32.7804 41.7698 34.2004 45.0198L30.9504 46.4397V46.4497Z" fill="url(#paint0_linear_180_1204)"/>
<path d="M64.2401 48.1597C61.7901 48.1597 59.8502 47.3598 58.5402 45.7698C57.5102 44.5198 56.7701 42.6297 56.3201 40.1797C55.9801 38.1297 55.6401 36.0798 55.3501 34.0198C55.0701 32.3698 54.4402 31.5098 53.4102 31.5098C52.4402 31.5098 51.7001 32.1899 51.2401 33.6199C50.8401 34.6999 49.7001 39.3797 47.7101 47.6997L43.6602 46.7297C46.9702 32.7597 50.9001 18.0597 55.4001 2.65967L59.4501 3.85986C57.1101 11.8999 54.8901 19.7599 52.8401 27.3499C53.2401 27.2899 53.5201 27.2898 53.7001 27.2898C56.4901 27.6298 58.3202 29.2296 59.1702 32.1396C59.5702 34.7096 60.0302 37.3296 60.4202 39.8896C60.9302 42.5696 62.2402 43.9397 64.3002 43.9397C68.4602 43.9397 71.4301 37.5597 73.1901 24.7297L77.3501 25.2998C75.2401 40.5198 70.8501 48.1597 64.2401 48.1597Z" fill="url(#paint1_linear_180_1204)"/>
<path d="M114.8 10.1899C106.99 11.7899 103.06 18.23 103.06 29.46C103.06 33.17 103.46 36.02 104.2 38.01C105.23 40.8 107.16 42.7399 109.96 43.9399L108.31 47.8201C104.66 46.2801 102.1 43.7701 100.61 40.3501C99.4701 37.6701 98.9001 34.02 98.9001 29.46C98.9001 21.42 100.78 15.38 104.54 11.22C99.6402 11.62 94.6802 11.79 89.6602 11.79V7.57007C99.7502 7.57007 109.16 6.88996 117.88 5.45996L118.56 9.62012C117.7 9.73012 116.45 9.90994 114.8 10.1899ZM115.14 23.7C113.83 21.93 112.4 20.1101 110.81 18.3401L112.98 16.46C114.63 18.28 116.12 20.11 117.48 21.99L115.14 23.7ZM118.96 20.3999C117.48 18.5199 116 16.69 114.57 15.04L116.74 13.1599C118.22 14.8699 119.7 16.6899 121.24 18.6299L118.96 20.3999Z" fill="url(#paint2_linear_180_1204)"/>
<path d="M141.42 46.7297L140.11 42.6296C151.28 39.0996 156.87 32.0798 156.87 21.5398C156.87 18.3998 156.3 16.1799 155.22 14.8699C154.02 13.4399 151.86 12.6997 148.78 12.6997C145.02 12.6997 140.06 13.2699 133.84 14.3499L133.1 10.1296C139.43 8.92964 144.67 8.35986 148.78 8.35986C152.26 8.35986 155.11 9.20987 157.22 10.8699C159.56 12.6399 160.81 15.1998 161.04 18.5698C161.1 19.4198 161.15 20.4498 161.15 21.5298C161.15 34.1298 154.6 42.5697 141.43 46.7297H141.42Z" fill="url(#paint3_linear_180_1204)"/>
<path d="M194.881 48.6099C191.861 43.9899 188.671 39.1998 185.301 34.2998C184.221 32.7598 182.561 30.4797 180.451 27.3997C179.711 26.1997 179.371 25.0097 179.371 23.6897C179.371 22.0897 179.881 20.6097 180.911 19.1897C181.201 18.7897 182.621 17.0196 185.241 13.8896C188.261 10.2396 191.571 6.36977 195.101 2.25977L198.461 5.16968C194.981 9.26968 191.681 13.1497 188.651 16.7397C187.681 17.9397 186.261 19.6998 184.371 22.0398C183.971 22.5498 183.801 23.0697 183.801 23.6897C183.801 24.1497 183.921 24.5398 184.141 24.8298C185.281 26.4798 186.991 28.9297 189.331 32.2397C192.581 36.9697 195.711 41.6497 198.621 46.1497L194.861 48.5999L194.881 48.6099Z" fill="url(#paint4_linear_180_1204)"/>
<path d="M242.881 49.7498C241.681 46.0398 241.111 41.0798 241.111 34.8098C241.111 32.1898 241.221 28.9398 241.511 25.0598C241.791 21.8098 242.021 18.5598 242.251 15.3098V14.7397C242.361 13.3097 241.851 12.5698 240.771 12.5698C239.911 12.5698 238.952 13.1997 237.812 14.4497C235.592 17.0097 231.541 22.2597 225.611 30.1797C225.611 37.3097 225.721 43.0098 226.011 47.3398L222.081 47.5698C221.911 44.2598 221.791 40.2197 221.741 35.4797L219.001 39.1897L215.691 36.7397L221.682 28.5898C221.682 26.2498 221.742 23.2298 221.792 19.5798H216.661V15.8198H221.851C221.961 11.0298 222.081 6.40973 222.251 1.96973L226.182 2.07983C225.892 9.02983 225.722 16.0998 225.672 23.2898C227.612 20.7198 230.571 16.9096 234.621 11.8896C236.561 9.60965 238.611 8.46973 240.781 8.46973C242.491 8.46973 243.861 9.09979 244.881 10.2898C245.911 11.5398 246.422 13.0298 246.422 14.7898C246.422 16.9598 246.251 20.2597 245.851 24.7097C245.451 29.2097 245.221 32.5798 245.221 34.7998C245.221 40.6698 245.731 45.2297 246.821 48.4797L242.891 49.7297L242.881 49.7498Z" fill="url(#paint5_linear_180_1204)"/>
<path d="M286.031 42.7998C283.121 46.5598 279.871 48.4397 276.171 48.4397C274.171 48.4397 272.461 47.8097 271.101 46.4397C269.681 45.1297 268.991 43.4797 268.991 41.4797C268.991 39.3097 269.791 37.5497 271.381 36.2397C272.861 34.9297 274.691 34.2998 276.911 34.2998C279.931 34.2998 282.331 35.7298 284.091 38.5198C285.061 36.8098 285.571 34.6997 285.571 32.1897C285.571 30.0197 284.941 28.3098 283.631 27.0598C282.321 25.8598 280.611 25.2397 278.441 25.2397C275.481 25.2397 272.571 26.7196 269.721 29.6296C267.551 31.8496 265.671 34.6497 264.021 37.9497C264.021 37.9497 263.961 38.0599 263.911 38.3499L260.031 37.4397C262.201 28.5997 266.871 18.8598 274.051 8.07983L265.731 8.1897L265.671 4.13965L277.871 3.96973L279.521 7.15967C275.361 13.0297 271.881 18.8998 268.971 24.8298C271.881 22.3798 275.011 21.1797 278.431 21.1797C281.851 21.1797 284.361 22.2097 286.471 24.1997C288.521 26.1997 289.551 28.8697 289.551 32.1797C289.551 36.1697 288.351 39.6998 286.011 42.7798L286.031 42.7998ZM276.911 38.3499C274.351 38.3499 273.031 39.3797 273.031 41.4897C273.031 43.4297 274.061 44.3997 276.171 44.3997C277.991 44.3997 279.701 43.5998 281.301 42.0598C280.441 39.6098 278.961 38.3499 276.911 38.3499Z" fill="url(#paint6_linear_180_1204)"/>
<path d="M319.14 41.8896H315.21L314.41 1.23975H319.88L319.14 41.8896ZM314.93 50.7197V45.4797H319.38V50.7197H314.93Z" fill="url(#paint7_linear_180_1204)"/>
<path d="M27.361 95.5398V139.78H19.8309V135.73H23.311V95.5398H0.960938V91.7197H34.5909V95.5398H27.351H27.361ZM15.281 124.56V123.02H9.07092V124.56H5.31104V101.24H19.051V124.56H15.291H15.281ZM15.281 105.01H9.07092V119.26H15.281V105.01Z" fill="url(#paint8_linear_180_1204)"/>
<path d="M76.3796 140.29C70.7396 139.55 65.3797 137.33 60.2997 133.73C55.6797 136.98 50.7197 139.15 45.5297 140.23L44.7296 136.58C49.0596 135.61 53.2196 133.84 57.2096 131.22C55.4396 129.68 54.0197 128.31 53.0497 127.06L56.0096 124.72C57.0396 126.03 58.4596 127.4 60.3396 128.94C62.3896 127.29 64.2696 125.52 65.9796 123.58H54.0597C51.3197 127.17 48.1297 130.08 44.5397 132.3L42.5996 129.05C44.9896 127.63 47.2696 125.63 49.4996 123.18C51.7296 120.73 53.3197 118.22 54.3997 115.66L57.8796 117.09C57.5896 117.83 57.1396 118.74 56.5096 119.83H69.9097L71.4496 122.74C69.5696 125.59 66.9496 128.44 63.4696 131.29C67.7996 134.2 72.2497 135.91 76.8097 136.53L76.3496 140.29H76.3796ZM74.9596 107.8L71.7697 105.8L72.9696 103.98H48.1196V109.4H44.3596V99.0798H48.1196V100.22H51.4796C50.9696 99.1397 50.3997 98.1697 49.7697 97.1997L52.6797 95.1497C53.8797 96.8597 54.7897 98.5697 55.2997 100.22H63.3997L62.7196 98.6797C66.0796 97.2597 68.3597 95.0898 69.5597 92.2998L72.8696 93.6697C71.8396 96.1197 69.9597 98.3397 67.2797 100.23H76.3997L77.9996 103.08L74.9796 107.81L74.9596 107.8ZM47.5896 117.38L45.0796 114.82C47.5896 112.37 49.3596 109.75 50.3796 106.95L53.7396 108.15C52.5396 111.46 50.4896 114.53 47.5796 117.38H47.5896ZM59.2196 93.9497C60.5296 95.9497 61.3897 97.7699 61.6697 99.3699L58.1396 100.05C57.8496 98.7398 57.1696 97.1997 55.9696 95.4897L57.7897 94.1797C54.8297 94.5797 51.6896 94.8097 48.3296 94.9797L48.1597 91.2197C55.5097 90.8797 62.8097 89.7997 70.0497 87.9097L71.0197 91.4998C66.6897 92.6398 62.7496 93.4397 59.2196 93.9497ZM69.7697 118.35C69.0897 118.41 68.3997 118.41 67.7697 118.41C65.7697 118.41 63.7797 118.18 61.8997 117.78C59.2797 117.21 57.3397 115.56 56.0297 112.88C54.9997 110.77 54.4897 108.15 54.4297 105.13H58.0197C58.2497 110.55 59.7896 113.57 62.6396 114.25C63.9496 114.59 65.4896 114.76 67.1396 114.82L66.2296 113.17L69.2496 112.03L71.2496 115.56L69.7697 118.35ZM63.0996 112.42C62.6396 110.42 61.5597 108.6 59.9097 106.83L62.4796 104.32C64.6496 106.54 66.0196 108.99 66.5796 111.62L63.0996 112.42ZM75.0696 117.32C73.5296 114.07 71.2497 111.45 68.1697 109.34L70.1597 106.38C73.8097 108.83 76.5397 111.97 78.3097 115.79L75.0597 117.33L75.0696 117.32Z" fill="url(#paint9_linear_180_1204)"/>
<path d="M98.2711 137.04C94.6811 134.59 92.4012 130.54 91.3112 124.84C90.8512 122.39 90.5711 117.54 90.4011 110.25C90.2911 103.81 89.9411 99.0198 89.3711 95.8298L93.6511 95.0898C94.2211 98.5098 94.5611 103.53 94.7311 110.14C94.8411 116.75 95.0211 120.97 95.3011 122.8C96.1011 128.04 97.8711 131.64 100.661 133.52L98.2711 137.05V137.04ZM113.831 123.99C113.771 122.62 113.661 120.51 113.371 117.61C113.031 114.47 112.691 112.19 112.291 110.71C111.661 108.26 110.691 106.21 109.331 104.44L112.521 101.87C114.171 103.98 115.431 106.37 116.171 109.17C116.681 111.05 117.081 113.73 117.421 117.21C117.591 118.69 117.761 120.92 117.931 123.88L113.821 123.99H113.831Z" fill="url(#paint10_linear_180_1204)"/>
<path d="M153.16 101.87C153.33 109.68 152.93 116.01 151.91 120.91C150.43 127.92 147.58 133.51 143.3 137.61L140.22 134.36C143.7 131 146.04 126.44 147.35 120.68C148.32 116.63 148.78 111.44 148.78 105C148.78 103.97 148.78 102.95 148.72 101.86H140.63C139.38 107.39 137.09 112.01 133.85 115.66L130.66 112.81C134.71 108.31 136.99 101.47 137.56 92.29L141.89 92.5801C141.72 94.5801 141.6 96.2901 141.43 97.6001H161.1V101.88H153.18L153.16 101.87Z" fill="url(#paint11_linear_180_1204)"/>
<path d="M188.56 111.22C188.56 115.5 188.67 119.49 188.96 123.19C189.02 124.5 189.13 125.47 189.25 126.1C189.42 127.18 189.71 128.1 190.05 128.84C190.9 130.55 192.61 131.8 195.18 132.55C196.49 132.95 198.66 133.29 201.68 133.63L201.22 137.96C195.4 137.33 191.41 136.25 189.25 134.6C186.57 132.55 184.97 128.84 184.58 123.54C184.29 119.83 184.18 115.73 184.18 111.23H175.34V107.01H184.18C184.24 104.33 184.29 101.25 184.46 97.72H178.42V93.5H196.78V97.72H188.86C188.69 101.25 188.63 104.33 188.57 107.01H202.14V111.23H188.57L188.56 111.22Z" fill="url(#paint12_linear_180_1204)"/>
<path d="M220.87 136.07L218.82 132.139C231.25 125.579 237.46 113.099 237.52 94.6895H241.97C241.97 114.929 234.96 128.72 220.88 136.08L220.87 136.07Z" fill="url(#paint13_linear_180_1204)"/>
<path d="M270.411 104.04C269.331 118.41 267.561 129.81 265.111 138.24L261.121 137.1C263.511 128.95 265.231 117.95 266.251 104.04H260.611V99.9399H266.591C266.761 96.9199 266.931 93.67 267.101 90.25L271.201 90.48C271.031 93.84 270.861 96.9799 270.691 99.9399H281.581V104.04H270.411ZM288.651 134.19C284.601 133.79 281.471 132.99 279.361 131.68C276.511 129.97 275.031 127.29 274.861 123.7L278.791 123.53C278.901 125.98 280.041 127.75 282.271 128.83C283.691 129.51 285.921 130.03 289.051 130.31L288.651 134.19ZM277.421 114.41V110.48H288.081V114.41H277.421Z" fill="url(#paint14_linear_180_1204)"/>
<path d="M323.99 133.91C321.08 136.7 317.49 138.47 313.21 139.15L312.58 135.16C315.83 134.65 318.62 133.34 320.9 131.28C323.47 129 324.72 126.26 324.72 123.13C324.72 117.32 322.44 114.41 317.88 114.41C316.11 114.41 314.63 114.87 313.38 115.72C311.95 116.69 311.16 118 311.04 119.65L306.99 119.37C307.56 113.84 308.53 107.23 309.95 99.53H303.34V95.6001H310.69L311.77 89.96L315.7 90.76L314.79 95.6101H325.05V99.54H314.05C313.54 102.28 312.85 106.38 311.88 111.91C313.65 110.94 315.64 110.43 317.86 110.43C321.45 110.43 324.19 111.68 326.13 114.19C327.9 116.47 328.75 119.44 328.75 123.14C328.75 127.3 327.15 130.89 323.96 133.91H323.99Z" fill="url(#paint15_linear_180_1204)"/>
<path d="M375.861 115.32C375.861 119.31 375.521 122.959 374.781 126.209C373.701 130.939 371.871 134.989 369.191 138.469L365.881 135.959C368.221 132.999 369.811 129.46 370.731 125.36C371.411 122.34 371.761 118.979 371.761 115.379C371.761 112.469 371.531 109.85 371.021 107.51C370.391 104.37 369.141 101.98 367.261 100.27C365.381 98.5595 363.101 97.6995 360.301 97.6995C354.601 97.6995 350.951 101.01 349.411 107.56C348.841 109.95 348.551 112.63 348.551 115.6C348.551 118.57 348.841 121.24 349.411 123.52C350.441 127.74 351.971 129.85 353.971 129.85C356.141 129.85 357.391 127.85 357.681 123.86C358.081 117.93 358.141 110.58 357.741 101.8L361.841 101.629C362.241 110.579 362.181 118.049 361.781 124.149C361.321 130.709 358.701 133.959 353.971 133.959C349.811 133.959 346.961 130.82 345.421 124.5C344.791 121.88 344.451 118.909 344.451 115.659C344.451 112.409 344.791 109.329 345.421 106.649C346.391 102.489 348.161 99.2995 350.781 97.0195C353.341 94.7395 356.541 93.5996 360.301 93.5996C364.061 93.5996 367.201 94.7396 369.881 97.0796C372.501 99.4196 374.211 102.669 375.071 106.709C375.581 109.279 375.871 112.18 375.871 115.32H375.861Z" fill="url(#paint16_linear_180_1204)"/>
<path d="M27.361 184.54V228.78H19.8309V224.73H23.311V184.54H0.960938V180.72H34.5909V184.54H27.351H27.361ZM15.281 213.56V212.02H9.07092V213.56H5.31104V190.24H19.051V213.56H15.291H15.281ZM15.281 194.01H9.07092V208.26H15.281V194.01Z" fill="url(#paint17_linear_180_1204)"/>
<path d="M54.4304 189.56V192.52H61.2103V212.24H57.6204V211.38H54.4304V215.26H60.5903V218.85H54.4304V222.21C56.6004 221.47 58.3604 220.78 59.7904 220.16L61.2203 223.41C56.1503 225.63 50.3903 227.51 43.9503 229.05L43.1504 225.52C45.4304 225.01 47.9903 224.27 50.8503 223.35V218.85H44.4104V215.26H50.8503V211.38H47.6604V212.24H44.0703V192.52H50.8503V189.56H43.7203V185.97H50.8503V183.06C48.7403 183.46 46.9204 183.69 45.2604 183.86L44.9803 180.27C49.2603 179.87 53.9304 178.96 59.0004 177.53L59.9703 180.95C58.2603 181.46 56.4303 181.98 54.4403 182.38V185.97H61.7404V189.56H54.4403H54.4304ZM50.8403 196.12H47.6504V200.17H50.8403V196.12ZM50.8403 203.75H47.6504V207.8H50.8403V203.75ZM57.6304 196.12H54.4403V200.17H57.6304V196.12ZM57.6304 203.75H54.4403V207.8H57.6304V203.75ZM77.5803 206.43C77.4603 212.64 77.1204 217.77 76.5504 221.76C76.0904 225.07 75.1304 227.18 73.6404 228.14C72.7804 228.71 71.7604 228.99 70.6204 228.99C69.7604 228.99 68.7403 228.82 67.6003 228.48L68.5703 224.89C69.4303 225.12 70.1104 225.23 70.6804 225.23C71.4804 225.23 72.0504 224.72 72.3904 223.75C72.4504 223.52 72.6203 222.67 72.8503 221.24C73.1903 219.13 73.4203 215.31 73.5903 209.84C73.7003 205.45 73.7603 199.86 73.8203 192.97H70.2303C69.6003 206.59 67.8403 218 64.9803 227.17L61.3904 226.09C64.1804 217.2 65.8403 206.14 66.4603 192.97H63.1003V189.21H66.6404C66.7504 185.73 66.8104 181.97 66.8104 178.04H70.5703C70.5703 181.97 70.5104 185.68 70.4004 189.21H77.5803V206.43Z" fill="url(#paint18_linear_180_1204)"/>
<path d="M113.031 207.86C110.521 216.13 105.391 222.11 97.6412 225.82L95.7012 221.83C101.971 218.81 106.191 214.02 108.411 207.52C109.891 203.24 110.691 196.69 110.801 187.97H91.5312V183.52H115.301C115.301 194.69 114.561 202.79 113.021 207.86H113.031ZM124.261 185.68C123.401 186.54 122.441 186.93 121.351 186.93C120.211 186.93 119.241 186.53 118.441 185.68C117.591 184.88 117.191 183.91 117.191 182.77C117.191 181.63 117.591 180.72 118.441 179.86C119.241 179.06 120.211 178.66 121.351 178.66C122.491 178.66 123.401 179.06 124.261 179.86C125.061 180.71 125.461 181.68 125.461 182.77C125.461 183.91 125.061 184.88 124.261 185.68ZM122.721 181.41C122.321 181.01 121.871 180.84 121.351 180.84C120.781 180.84 120.321 181.01 119.921 181.41C119.521 181.81 119.351 182.26 119.351 182.78C119.351 183.35 119.521 183.81 119.921 184.21C120.321 184.61 120.781 184.78 121.351 184.78C121.861 184.78 122.321 184.61 122.721 184.21C123.121 183.81 123.291 183.36 123.291 182.78C123.291 182.27 123.121 181.81 122.721 181.41Z" fill="url(#paint19_linear_180_1204)"/>
<path d="M155.211 215.16C152.361 220.75 147.681 224.85 141.241 227.42L139.591 223.37C145.231 221.09 149.221 217.56 151.561 212.71C153.501 208.72 154.471 203.3 154.471 196.52V196.06H134.461V191.67H158.751C158.811 194.06 158.861 195.72 158.861 196.63C158.861 204.21 157.661 210.43 155.211 215.16ZM137.031 186.88V182.49H156.241V186.88H137.031Z" fill="url(#paint20_linear_180_1204)"/>
<path d="M188.56 200.22C188.56 204.5 188.67 208.49 188.96 212.19C189.02 213.5 189.13 214.47 189.25 215.1C189.42 216.18 189.71 217.1 190.05 217.84C190.9 219.55 192.61 220.8 195.18 221.55C196.49 221.95 198.66 222.29 201.68 222.63L201.22 226.96C195.4 226.33 191.41 225.25 189.25 223.6C186.57 221.55 184.97 217.84 184.58 212.54C184.29 208.83 184.18 204.73 184.18 200.23H175.34V196.01H184.18C184.24 193.33 184.29 190.25 184.46 186.72H178.42V182.5H196.78V186.72H188.86C188.69 190.25 188.63 193.33 188.57 196.01H202.14V200.23H188.57L188.56 200.22Z" fill="url(#paint21_linear_180_1204)"/>
<path d="M233.991 197.94C234.161 204.04 233.761 209.11 232.851 213.22C231.651 218.75 229.431 223.25 226.181 226.73L222.931 223.65C227.321 218.98 229.541 211.39 229.541 200.85C229.541 199.94 229.541 198.97 229.481 197.94H217.281V193.66H245.041V197.94H233.981H233.991ZM221.051 185.97V181.64H241.521V185.97H221.051ZM248.871 191.27C247.561 189.5 246.081 187.74 244.541 185.97L246.651 184.03C248.301 185.85 249.841 187.68 251.151 189.56L248.871 191.27ZM252.681 187.96C251.201 186.08 249.721 184.25 248.291 182.6L250.461 180.72C251.941 182.43 253.421 184.25 254.961 186.25L252.681 187.96Z" fill="url(#paint22_linear_180_1204)"/>
<path d="M268.241 209.8C267.611 216.87 266.131 222.46 263.681 226.62L259.801 224.4C261.971 220.69 263.341 215.45 263.851 208.67C264.021 206.22 264.141 200.69 264.141 192.08H268.641C268.641 201.09 268.531 207.02 268.241 209.81V209.8ZM286.831 214.59C284.491 218.24 281.471 221.66 277.651 224.91L273.941 223.2V181.36H278.441V218.07C282.601 213.74 285.851 207.92 288.251 200.57L292.471 201.94C290.821 206.96 288.941 211.18 286.831 214.6V214.59Z" fill="url(#paint23_linear_180_1204)"/>
<defs>
<linearGradient id="paint0_linear_180_1204" x1="0.0505469" y1="114.929" x2="375.86" y2="114.929" gradientUnits="userSpaceOnUse">
<stop stop-color="#653A18"/>
<stop offset="0.5" stop-color="#924300"/>
<stop offset="1" stop-color="#FF9B1F"/>
</linearGradient>
<linearGradient id="paint1_linear_180_1204" x1="0.0502311" y1="114.93" x2="375.86" y2="114.93" gradientUnits="userSpaceOnUse">
<stop stop-color="#653A18"/>
<stop offset="0.5" stop-color="#924300"/>
<stop offset="1" stop-color="#FF9B1F"/>
</linearGradient>
<linearGradient id="paint2_linear_180_1204" x1="0.0502861" y1="114.93" x2="375.86" y2="114.93" gradientUnits="userSpaceOnUse">
<stop stop-color="#653A18"/>
<stop offset="0.5" stop-color="#924300"/>
<stop offset="1" stop-color="#FF9B1F"/>
</linearGradient>
<linearGradient id="paint3_linear_180_1204" x1="0.0493827" y1="114.93" x2="375.86" y2="114.93" gradientUnits="userSpaceOnUse">
<stop stop-color="#653A18"/>
<stop offset="0.5" stop-color="#924300"/>
<stop offset="1" stop-color="#FF9B1F"/>
</linearGradient>
<linearGradient id="paint4_linear_180_1204" x1="0.0510954" y1="114.93" x2="375.861" y2="114.93" gradientUnits="userSpaceOnUse">
<stop stop-color="#653A18"/>
<stop offset="0.5" stop-color="#924300"/>
<stop offset="1" stop-color="#FF9B1F"/>
</linearGradient>
<linearGradient id="paint5_linear_180_1204" x1="0.0513739" y1="114.93" x2="375.861" y2="114.93" gradientUnits="userSpaceOnUse">
<stop stop-color="#653A18"/>
<stop offset="0.5" stop-color="#924300"/>
<stop offset="1" stop-color="#FF9B1F"/>
</linearGradient>
<linearGradient id="paint6_linear_180_1204" x1="0.0510743" y1="114.93" x2="375.861" y2="114.93" gradientUnits="userSpaceOnUse">
<stop stop-color="#653A18"/>
<stop offset="0.5" stop-color="#924300"/>
<stop offset="1" stop-color="#FF9B1F"/>
</linearGradient>
<linearGradient id="paint7_linear_180_1204" x1="0.058849" y1="114.93" x2="375.858" y2="114.93" gradientUnits="userSpaceOnUse">
<stop stop-color="#653A18"/>
<stop offset="0.5" stop-color="#924300"/>
<stop offset="1" stop-color="#FF9B1F"/>
</linearGradient>
<linearGradient id="paint8_linear_180_1204" x1="0.0509374" y1="114.93" x2="375.861" y2="114.93" gradientUnits="userSpaceOnUse">
<stop stop-color="#653A18"/>
<stop offset="0.5" stop-color="#924300"/>
<stop offset="1" stop-color="#FF9B1F"/>
</linearGradient>
<linearGradient id="paint9_linear_180_1204" x1="0.0495098" y1="114.93" x2="375.86" y2="114.93" gradientUnits="userSpaceOnUse">
<stop stop-color="#653A18"/>
<stop offset="0.5" stop-color="#924300"/>
<stop offset="1" stop-color="#FF9B1F"/>
</linearGradient>
<linearGradient id="paint10_linear_180_1204" x1="0.0509069" y1="114.93" x2="375.862" y2="114.93" gradientUnits="userSpaceOnUse">
<stop stop-color="#653A18"/>
<stop offset="0.5" stop-color="#924300"/>
<stop offset="1" stop-color="#FF9B1F"/>
</linearGradient>
<linearGradient id="paint11_linear_180_1204" x1="0.0504055" y1="114.93" x2="375.86" y2="114.93" gradientUnits="userSpaceOnUse">
<stop stop-color="#653A18"/>
<stop offset="0.5" stop-color="#924300"/>
<stop offset="1" stop-color="#FF9B1F"/>
</linearGradient>
<linearGradient id="paint12_linear_180_1204" x1="0.0495155" y1="114.93" x2="375.86" y2="114.93" gradientUnits="userSpaceOnUse">
<stop stop-color="#653A18"/>
<stop offset="0.5" stop-color="#924300"/>
<stop offset="1" stop-color="#FF9B1F"/>
</linearGradient>
<linearGradient id="paint13_linear_180_1204" x1="0.0500871" y1="114.93" x2="375.86" y2="114.93" gradientUnits="userSpaceOnUse">
<stop stop-color="#653A18"/>
<stop offset="0.5" stop-color="#924300"/>
<stop offset="1" stop-color="#FF9B1F"/>
</linearGradient>
<linearGradient id="paint14_linear_180_1204" x1="0.0507369" y1="114.93" x2="375.862" y2="114.93" gradientUnits="userSpaceOnUse">
<stop stop-color="#653A18"/>
<stop offset="0.5" stop-color="#924300"/>
<stop offset="1" stop-color="#FF9B1F"/>
</linearGradient>
<linearGradient id="paint15_linear_180_1204" x1="0.0494294" y1="114.93" x2="375.86" y2="114.93" gradientUnits="userSpaceOnUse">
<stop stop-color="#653A18"/>
<stop offset="0.5" stop-color="#924300"/>
<stop offset="1" stop-color="#FF9B1F"/>
</linearGradient>
<linearGradient id="paint16_linear_180_1204" x1="0.0493637" y1="114.93" x2="375.861" y2="114.93" gradientUnits="userSpaceOnUse">
<stop stop-color="#653A18"/>
<stop offset="0.5" stop-color="#924300"/>
<stop offset="1" stop-color="#FF9B1F"/>
</linearGradient>
<linearGradient id="paint17_linear_180_1204" x1="0.0509374" y1="114.93" x2="375.861" y2="114.93" gradientUnits="userSpaceOnUse">
<stop stop-color="#653A18"/>
<stop offset="0.5" stop-color="#924300"/>
<stop offset="1" stop-color="#FF9B1F"/>
</linearGradient>
<linearGradient id="paint18_linear_180_1204" x1="0.050478" y1="114.93" x2="375.86" y2="114.93" gradientUnits="userSpaceOnUse">
<stop stop-color="#653A18"/>
<stop offset="0.5" stop-color="#924300"/>
<stop offset="1" stop-color="#FF9B1F"/>
</linearGradient>
<linearGradient id="paint19_linear_180_1204" x1="0.0514282" y1="114.929" x2="375.861" y2="114.929" gradientUnits="userSpaceOnUse">
<stop stop-color="#653A18"/>
<stop offset="0.5" stop-color="#924300"/>
<stop offset="1" stop-color="#FF9B1F"/>
</linearGradient>
<linearGradient id="paint20_linear_180_1204" x1="0.0508014" y1="114.93" x2="375.861" y2="114.93" gradientUnits="userSpaceOnUse">
<stop stop-color="#653A18"/>
<stop offset="0.5" stop-color="#924300"/>
<stop offset="1" stop-color="#FF9B1F"/>
</linearGradient>
<linearGradient id="paint21_linear_180_1204" x1="0.0495155" y1="114.93" x2="375.86" y2="114.93" gradientUnits="userSpaceOnUse">
<stop stop-color="#653A18"/>
<stop offset="0.5" stop-color="#924300"/>
<stop offset="1" stop-color="#FF9B1F"/>
</linearGradient>
<linearGradient id="paint22_linear_180_1204" x1="0.051635" y1="114.93" x2="375.861" y2="114.93" gradientUnits="userSpaceOnUse">
<stop stop-color="#653A18"/>
<stop offset="0.5" stop-color="#924300"/>
<stop offset="1" stop-color="#FF9B1F"/>
</linearGradient>
<linearGradient id="paint23_linear_180_1204" x1="0.0514039" y1="114.93" x2="375.861" y2="114.93" gradientUnits="userSpaceOnUse">
<stop stop-color="#653A18"/>
<stop offset="0.5" stop-color="#924300"/>
<stop offset="1" stop-color="#FF9B1F"/>
</linearGradient>
</defs>
</svg>
