<svg width="61" height="61" viewBox="0 0 61 61" fill="none" xmlns="http://www.w3.org/2000/svg">
<path d="M30.1699 60.7803C46.7385 60.7803 60.1699 47.3488 60.1699 30.7803C60.1699 14.2117 46.7385 0.780273 30.1699 0.780273C13.6014 0.780273 0.169922 14.2117 0.169922 30.7803C0.169922 47.3488 13.6014 60.7803 30.1699 60.7803Z" fill="#E93223"/>
<path d="M45.3501 23.1504C44.9901 21.7904 43.9102 20.7096 42.5502 20.3496C40.0802 19.6896 30.1702 19.6904 30.1702 19.6904C30.1702 19.6904 20.2602 19.6896 17.7902 20.3496C16.4302 20.7096 15.3501 21.7904 14.9901 23.1504C14.3301 25.6204 14.3301 30.7803 14.3301 30.7803C14.3301 30.7803 14.3301 35.9402 14.9901 38.4102C15.3501 39.7702 16.4302 40.85 17.7902 41.21C20.2602 41.87 30.1702 41.8701 30.1702 41.8701C30.1702 41.8701 40.0802 41.87 42.5502 41.21C43.9102 40.85 44.9901 39.7702 45.3501 38.4102C46.0101 35.9402 46.0101 30.7803 46.0101 30.7803C46.0101 30.7803 46.0101 25.6204 45.3501 23.1504ZM27.0001 35.54V26.0303L35.2301 30.7803L27.0001 35.5303V35.54Z" fill="white"/>
</svg>
