<?xml version="1.0" encoding="UTF-8"?>
<svg id="_レイヤー_2" data-name="レイヤー 2" xmlns="http://www.w3.org/2000/svg" viewBox="0 0 22 19.89">
  <defs>
    <style>
      .cls-1 {
        fill: #b3b3b3;
      }
    </style>
  </defs>
  <g id="content">
    <path class="cls-1" d="M11,19.89l-1.28-1.15c-1.92-1.74-3.51-3.24-4.76-4.49-1.26-1.25-2.25-2.37-2.98-3.34-.73-.98-1.25-1.87-1.54-2.67-.29-.8-.44-1.62-.44-2.45,0-1.64.55-3.02,1.66-4.13C2.77.55,4.15,0,5.79,0c1.01,0,1.97.24,2.87.71s1.68,1.15,2.34,2.03c.66-.88,1.45-1.56,2.34-2.03s1.85-.71,2.87-.71c1.64,0,3.02.55,4.13,1.66,1.11,1.11,1.66,2.48,1.66,4.13,0,.83-.15,1.64-.44,2.45-.29.8-.8,1.7-1.54,2.67-.73.98-1.73,2.09-2.98,3.34-1.25,1.25-2.84,2.75-4.77,4.49l-1.28,1.15ZM11,17.54c1.85-1.67,3.38-3.1,4.57-4.29,1.2-1.19,2.14-2.22,2.84-3.1.69-.88,1.18-1.66,1.45-2.34.27-.68.41-1.36.41-2.02,0-1.16-.39-2.12-1.16-2.89s-1.74-1.16-2.89-1.16c-.91,0-1.76.26-2.54.78-.78.52-1.39,1.24-1.84,2.17h-1.67c-.46-.93-1.08-1.66-1.85-2.17-.77-.52-1.62-.77-2.53-.77-1.15,0-2.11.39-2.89,1.16s-1.16,1.74-1.16,2.89c0,.67.14,1.34.41,2.02.27.68.75,1.46,1.45,2.34.69.88,1.64,1.91,2.84,3.1,1.2,1.19,2.72,2.62,4.57,4.29Z"/>
  </g>
</svg>