<svg width="19" height="15" viewBox="0 0 19 15" fill="none" xmlns="http://www.w3.org/2000/svg">
<path d="M2.53967 14.6599C2.07967 14.6599 1.69971 14.51 1.38971 14.2C1.07971 13.89 0.929688 13.51 0.929688 13.05V2.28003C0.929688 1.82003 1.07971 1.43988 1.38971 1.12988C1.69971 0.819883 2.07967 0.669922 2.53967 0.669922H17.3097C17.7697 0.669922 18.1497 0.819883 18.4597 1.12988C18.7697 1.43988 18.9197 1.82003 18.9197 2.28003V13.05C18.9197 13.51 18.7697 13.89 18.4597 14.2C18.1497 14.51 17.7697 14.6599 17.3097 14.6599H2.53967ZM9.92969 7.78003L1.92969 2.55005V13.05C1.92969 13.23 1.98967 13.38 2.09967 13.49C2.21967 13.61 2.35967 13.6599 2.53967 13.6599H17.3097C17.4897 13.6599 17.6397 13.6 17.7497 13.49C17.8697 13.37 17.9197 13.23 17.9197 13.05V2.55005L9.91968 7.78003H9.92969ZM9.92969 6.65991L17.6197 1.65991H2.23969L9.92969 6.65991ZM1.92969 2.55005V1.66992V13.05C1.92969 13.23 1.98967 13.38 2.09967 13.49C2.21967 13.61 2.35967 13.6599 2.53967 13.6599H1.91968V2.54004L1.92969 2.55005Z" fill="white"/>
</svg>
