<svg width="61" height="61" viewBox="0 0 61 61" fill="none" xmlns="http://www.w3.org/2000/svg">
<path d="M30.1699 60.7803C46.7385 60.7803 60.1699 47.3488 60.1699 30.7803C60.1699 14.2117 46.7385 0.780273 30.1699 0.780273C13.6014 0.780273 0.169922 14.2117 0.169922 30.7803C0.169922 47.3488 13.6014 60.7803 30.1699 60.7803Z" fill="black"/>
<path d="M37.759 18.8496H41.8091L32.959 28.96L43.369 42.7197H35.219L28.839 34.3799L21.5391 42.7197H17.479L26.939 31.9102L16.959 18.8604H25.3091L31.079 26.4805L37.749 18.8604L37.759 18.8496ZM36.329 40.29H38.569L24.089 21.1396H21.6791L36.329 40.29Z" fill="white"/>
</svg>
