<svg width="174" height="36" viewBox="0 0 174 36" fill="none" xmlns="http://www.w3.org/2000/svg">
<path d="M14.2102 0.439941V1.98999C14.2102 2.52999 14.1401 2.88007 13.9801 3.07007C13.8301 3.25007 13.4902 3.3501 12.9602 3.3501H4.66013V15.8501H12.7102V17.3999C12.7102 17.9299 12.6401 18.29 12.4801 18.48C12.3301 18.66 11.9902 18.75 11.4602 18.75H4.66013V34.1001C4.66013 34.6301 4.57017 34.9899 4.39017 35.1699C4.21017 35.3499 3.85015 35.45 3.31015 35.45H0.660156V1.80005C0.660156 1.27005 0.750145 0.90998 0.930145 0.72998C1.11015 0.54998 1.47016 0.449951 2.01016 0.449951H14.2102V0.439941Z" fill="#825A12"/>
<path d="M18.8496 14.79C18.8496 13.06 19.2096 11.8301 19.9296 11.1101C20.6496 10.4001 21.8696 10.04 23.5996 10.04H30.5996C32.3296 10.04 33.5597 10.4001 34.2797 11.1101C34.9997 11.8301 35.3496 13.05 35.3496 14.79V30.6899C35.3496 32.4199 34.9897 33.6501 34.2797 34.3601C33.5597 35.0801 32.3396 35.4399 30.5996 35.4399H23.5996C21.8696 35.4399 20.6396 35.0801 19.9296 34.3601C19.2096 33.6501 18.8496 32.4199 18.8496 30.6899V14.79ZM25.2097 12.9399C24.1797 12.9399 23.5296 13.1601 23.2596 13.5901C22.9896 14.0201 22.8596 14.76 22.8596 15.79V29.6899C22.8596 30.7199 22.9896 31.4599 23.2596 31.8899C23.5296 32.3199 24.1797 32.54 25.2097 32.54H29.0096C30.0396 32.54 30.6897 32.3199 30.9597 31.8899C31.2297 31.4599 31.3596 30.7199 31.3596 29.6899V15.79C31.3596 14.76 31.2297 14.0201 30.9597 13.5901C30.6897 13.1601 30.0396 12.9399 29.0096 12.9399H25.2097Z" fill="#825A12"/>
<path d="M46.0505 0.439941V34.0901C46.0505 34.6201 45.9606 34.9799 45.7806 35.1599C45.6006 35.3399 45.2406 35.4399 44.7106 35.4399H42.0605V1.79004C42.0605 1.26004 42.1506 0.899971 42.3406 0.719971C42.5206 0.539971 42.8805 0.439941 43.4105 0.439941H46.0605H46.0505Z" fill="#825A12"/>
<path d="M57.0994 0.439941V34.0901C57.0994 34.6201 57.0094 34.9799 56.8294 35.1599C56.6494 35.3399 56.2894 35.4399 55.7594 35.4399H53.1094V1.79004C53.1094 1.26004 53.1994 0.899971 53.3894 0.719971C53.5694 0.539971 53.9294 0.439941 54.4594 0.439941H57.1094H57.0994Z" fill="#825A12"/>
<path d="M63.75 14.79C63.75 13.06 64.11 11.8301 64.83 11.1101C65.55 10.4001 66.77 10.04 68.5 10.04H75.5C77.23 10.04 78.46 10.4001 79.18 11.1101C79.9 11.8301 80.25 13.05 80.25 14.79V30.6899C80.25 32.4199 79.89 33.6501 79.18 34.3601C78.46 35.0801 77.24 35.4399 75.5 35.4399H68.5C66.77 35.4399 65.54 35.0801 64.83 34.3601C64.11 33.6501 63.75 32.4199 63.75 30.6899V14.79ZM70.1 12.9399C69.07 12.9399 68.42 13.1601 68.15 13.5901C67.88 14.0201 67.75 14.76 67.75 15.79V29.6899C67.75 30.7199 67.88 31.4599 68.15 31.8899C68.42 32.3199 69.07 32.54 70.1 32.54H73.9C74.93 32.54 75.58 32.3199 75.85 31.8899C76.12 31.4599 76.25 30.7199 76.25 29.6899V15.79C76.25 14.76 76.12 14.0201 75.85 13.5901C75.58 13.1601 74.93 12.9399 73.9 12.9399H70.1Z" fill="#825A12"/>
<path d="M107.4 34.1897C107.33 34.5897 107.22 34.8999 107.05 35.1099C106.88 35.3299 106.58 35.4397 106.15 35.4397H102.45L99.8503 25.0398L98.4003 18.6396H98.1003L96.6003 25.0398L94.2003 34.1396C94.0303 34.6396 93.8303 34.9797 93.6003 35.1697C93.3703 35.3497 93.0503 35.4497 92.6503 35.4497H89.1503L84.9003 11.0498C84.8003 10.3798 85.0503 10.0498 85.6503 10.0498H88.4003L91.7503 32.0498H92.1003L96.1003 16.9497C96.2703 16.3797 96.6303 16.0798 97.2003 16.0498H100.5L104.45 32.0498H104.65L107.8 11.0498C107.87 10.6498 107.99 10.3798 108.18 10.2498C108.36 10.1198 108.66 10.0498 109.06 10.0498H111.41L107.41 34.1997L107.4 34.1897Z" fill="#825A12"/>
<path d="M143.35 0.439941V30.6899C143.35 32.4199 142.99 33.6501 142.27 34.3601C141.55 35.0801 140.33 35.4399 138.6 35.4399H130.65C128.92 35.4399 127.69 35.0801 126.98 34.3601C126.26 33.6501 125.9 32.4199 125.9 30.6899V1.79004C125.9 1.26004 125.99 0.899971 126.18 0.719971C126.36 0.539971 126.72 0.439941 127.25 0.439941H129.9V29.6899C129.9 30.7199 130.03 31.4599 130.3 31.8899C130.57 32.3199 131.22 32.54 132.25 32.54H137C138.03 32.54 138.68 32.3199 138.95 31.8899C139.22 31.4599 139.35 30.7199 139.35 29.6899V1.79004C139.35 1.26004 139.44 0.899971 139.62 0.719971C139.8 0.539971 140.16 0.439941 140.7 0.439941H143.35Z" fill="#825A12"/>
<path d="M154.051 24.1899C153.181 24.1899 152.471 24.12 151.931 23.99C151.381 23.86 150.951 23.61 150.631 23.27C150.311 22.92 150.101 22.4599 149.981 21.8899C149.861 21.3199 149.811 20.61 149.811 19.74V14.79C149.811 13.06 150.171 11.8301 150.881 11.1101C151.601 10.4001 152.821 10.04 154.561 10.04H161.261C161.791 10.04 162.141 10.1301 162.291 10.3201C162.441 10.5001 162.511 10.8599 162.511 11.3899V12.9399H155.911C154.881 12.9399 154.231 13.1601 153.961 13.5901C153.691 14.0201 153.561 14.76 153.561 15.79V18.4399C153.561 19.0399 153.581 19.5299 153.631 19.9099C153.681 20.2899 153.791 20.59 153.961 20.79C154.131 20.99 154.371 21.1199 154.691 21.1899C155.011 21.2599 155.421 21.29 155.921 21.29H158.771C159.641 21.29 160.351 21.36 160.891 21.49C161.441 21.62 161.871 21.87 162.191 22.22C162.511 22.57 162.721 23.0301 162.841 23.6001C162.961 24.1701 163.011 24.88 163.011 25.75V30.7C163.011 32.43 162.651 33.6601 161.941 34.3701C161.221 35.0901 160.001 35.45 158.261 35.45H151.061C150.531 35.45 150.181 35.3599 150.041 35.1699C149.891 34.9899 149.811 34.6301 149.811 34.1001V32.55H156.911C157.941 32.55 158.591 32.3299 158.861 31.8999C159.131 31.4699 159.261 30.73 159.261 29.7V27.05C159.261 26.02 159.131 25.2801 158.861 24.8501C158.591 24.4201 157.941 24.2 156.911 24.2H154.061L154.051 24.1899Z" fill="#825A12"/>
<path d="M173.301 0.439941V26.0901C173.301 26.6201 173.211 26.9799 173.031 27.1599C172.851 27.3399 172.491 27.4399 171.951 27.4399H169.301V1.79004C169.301 1.26004 169.391 0.899971 169.571 0.719971C169.751 0.539971 170.111 0.439941 170.651 0.439941H173.301ZM173.701 35.4399H170.651C170.121 35.4399 169.761 35.3499 169.571 35.1599C169.391 34.9799 169.301 34.6201 169.301 34.0901V31.4399H172.351C172.881 31.4399 173.241 31.53 173.431 31.72C173.611 31.9 173.701 32.26 173.701 32.79V35.4399Z" fill="#825A12"/>
<path d="M14.2102 0.439941V1.98999C14.2102 2.52999 14.1401 2.88007 13.9801 3.07007C13.8301 3.25007 13.4902 3.3501 12.9602 3.3501H4.66013V15.8501H12.7102V17.3999C12.7102 17.9299 12.6401 18.29 12.4801 18.48C12.3301 18.66 11.9902 18.75 11.4602 18.75H4.66013V34.1001C4.66013 34.6301 4.57017 34.9899 4.39017 35.1699C4.21017 35.3499 3.85015 35.45 3.31015 35.45H0.660156V1.80005C0.660156 1.27005 0.750145 0.90998 0.930145 0.72998C1.11015 0.54998 1.47016 0.449951 2.01016 0.449951H14.2102V0.439941Z" fill="url(#paint0_linear_188_406)"/>
<path d="M18.8496 14.79C18.8496 13.06 19.2096 11.8301 19.9296 11.1101C20.6496 10.4001 21.8696 10.04 23.5996 10.04H30.5996C32.3296 10.04 33.5597 10.4001 34.2797 11.1101C34.9997 11.8301 35.3496 13.05 35.3496 14.79V30.6899C35.3496 32.4199 34.9897 33.6501 34.2797 34.3601C33.5597 35.0801 32.3396 35.4399 30.5996 35.4399H23.5996C21.8696 35.4399 20.6396 35.0801 19.9296 34.3601C19.2096 33.6501 18.8496 32.4199 18.8496 30.6899V14.79ZM25.2097 12.9399C24.1797 12.9399 23.5296 13.1601 23.2596 13.5901C22.9896 14.0201 22.8596 14.76 22.8596 15.79V29.6899C22.8596 30.7199 22.9896 31.4599 23.2596 31.8899C23.5296 32.3199 24.1797 32.54 25.2097 32.54H29.0096C30.0396 32.54 30.6897 32.3199 30.9597 31.8899C31.2297 31.4599 31.3596 30.7199 31.3596 29.6899V15.79C31.3596 14.76 31.2297 14.0201 30.9597 13.5901C30.6897 13.1601 30.0396 12.9399 29.0096 12.9399H25.2097Z" fill="url(#paint1_linear_188_406)"/>
<path d="M46.0505 0.439941V34.0901C46.0505 34.6201 45.9606 34.9799 45.7806 35.1599C45.6006 35.3399 45.2406 35.4399 44.7106 35.4399H42.0605V1.79004C42.0605 1.26004 42.1506 0.899971 42.3406 0.719971C42.5206 0.539971 42.8805 0.439941 43.4105 0.439941H46.0605H46.0505Z" fill="url(#paint2_linear_188_406)"/>
<path d="M57.0994 0.439941V34.0901C57.0994 34.6201 57.0094 34.9799 56.8294 35.1599C56.6494 35.3399 56.2894 35.4399 55.7594 35.4399H53.1094V1.79004C53.1094 1.26004 53.1994 0.899971 53.3894 0.719971C53.5694 0.539971 53.9294 0.439941 54.4594 0.439941H57.1094H57.0994Z" fill="url(#paint3_linear_188_406)"/>
<path d="M63.75 14.79C63.75 13.06 64.11 11.8301 64.83 11.1101C65.55 10.4001 66.77 10.04 68.5 10.04H75.5C77.23 10.04 78.46 10.4001 79.18 11.1101C79.9 11.8301 80.25 13.05 80.25 14.79V30.6899C80.25 32.4199 79.89 33.6501 79.18 34.3601C78.46 35.0801 77.24 35.4399 75.5 35.4399H68.5C66.77 35.4399 65.54 35.0801 64.83 34.3601C64.11 33.6501 63.75 32.4199 63.75 30.6899V14.79ZM70.1 12.9399C69.07 12.9399 68.42 13.1601 68.15 13.5901C67.88 14.0201 67.75 14.76 67.75 15.79V29.6899C67.75 30.7199 67.88 31.4599 68.15 31.8899C68.42 32.3199 69.07 32.54 70.1 32.54H73.9C74.93 32.54 75.58 32.3199 75.85 31.8899C76.12 31.4599 76.25 30.7199 76.25 29.6899V15.79C76.25 14.76 76.12 14.0201 75.85 13.5901C75.58 13.1601 74.93 12.9399 73.9 12.9399H70.1Z" fill="url(#paint4_linear_188_406)"/>
<path d="M107.4 34.1897C107.33 34.5897 107.22 34.8999 107.05 35.1099C106.88 35.3299 106.58 35.4397 106.15 35.4397H102.45L99.8503 25.0398L98.4003 18.6396H98.1003L96.6003 25.0398L94.2003 34.1396C94.0303 34.6396 93.8303 34.9797 93.6003 35.1697C93.3703 35.3497 93.0503 35.4497 92.6503 35.4497H89.1503L84.9003 11.0498C84.8003 10.3798 85.0503 10.0498 85.6503 10.0498H88.4003L91.7503 32.0498H92.1003L96.1003 16.9497C96.2703 16.3797 96.6303 16.0798 97.2003 16.0498H100.5L104.45 32.0498H104.65L107.8 11.0498C107.87 10.6498 107.99 10.3798 108.18 10.2498C108.36 10.1198 108.66 10.0498 109.06 10.0498H111.41L107.41 34.1997L107.4 34.1897Z" fill="url(#paint5_linear_188_406)"/>
<path d="M143.35 0.439941V30.6899C143.35 32.4199 142.99 33.6501 142.27 34.3601C141.55 35.0801 140.33 35.4399 138.6 35.4399H130.65C128.92 35.4399 127.69 35.0801 126.98 34.3601C126.26 33.6501 125.9 32.4199 125.9 30.6899V1.79004C125.9 1.26004 125.99 0.899971 126.18 0.719971C126.36 0.539971 126.72 0.439941 127.25 0.439941H129.9V29.6899C129.9 30.7199 130.03 31.4599 130.3 31.8899C130.57 32.3199 131.22 32.54 132.25 32.54H137C138.03 32.54 138.68 32.3199 138.95 31.8899C139.22 31.4599 139.35 30.7199 139.35 29.6899V1.79004C139.35 1.26004 139.44 0.899971 139.62 0.719971C139.8 0.539971 140.16 0.439941 140.7 0.439941H143.35Z" fill="url(#paint6_linear_188_406)"/>
<path d="M154.051 24.1899C153.181 24.1899 152.471 24.12 151.931 23.99C151.381 23.86 150.951 23.61 150.631 23.27C150.311 22.92 150.101 22.4599 149.981 21.8899C149.861 21.3199 149.811 20.61 149.811 19.74V14.79C149.811 13.06 150.171 11.8301 150.881 11.1101C151.601 10.4001 152.821 10.04 154.561 10.04H161.261C161.791 10.04 162.141 10.1301 162.291 10.3201C162.441 10.5001 162.511 10.8599 162.511 11.3899V12.9399H155.911C154.881 12.9399 154.231 13.1601 153.961 13.5901C153.691 14.0201 153.561 14.76 153.561 15.79V18.4399C153.561 19.0399 153.581 19.5299 153.631 19.9099C153.681 20.2899 153.791 20.59 153.961 20.79C154.131 20.99 154.371 21.1199 154.691 21.1899C155.011 21.2599 155.421 21.29 155.921 21.29H158.771C159.641 21.29 160.351 21.36 160.891 21.49C161.441 21.62 161.871 21.87 162.191 22.22C162.511 22.57 162.721 23.0301 162.841 23.6001C162.961 24.1701 163.011 24.88 163.011 25.75V30.7C163.011 32.43 162.651 33.6601 161.941 34.3701C161.221 35.0901 160.001 35.45 158.261 35.45H151.061C150.531 35.45 150.181 35.3599 150.041 35.1699C149.891 34.9899 149.811 34.6301 149.811 34.1001V32.55H156.911C157.941 32.55 158.591 32.3299 158.861 31.8999C159.131 31.4699 159.261 30.73 159.261 29.7V27.05C159.261 26.02 159.131 25.2801 158.861 24.8501C158.591 24.4201 157.941 24.2 156.911 24.2H154.061L154.051 24.1899Z" fill="url(#paint7_linear_188_406)"/>
<path d="M173.301 0.439941V26.0901C173.301 26.6201 173.211 26.9799 173.031 27.1599C172.851 27.3399 172.491 27.4399 171.951 27.4399H169.301V1.79004C169.301 1.26004 169.391 0.899971 169.571 0.719971C169.751 0.539971 170.111 0.439941 170.651 0.439941H173.301ZM173.701 35.4399H170.651C170.121 35.4399 169.761 35.3499 169.571 35.1599C169.391 34.9799 169.301 34.6201 169.301 34.0901V31.4399H172.351C172.881 31.4399 173.241 31.53 173.431 31.72C173.611 31.9 173.701 32.26 173.701 32.79V35.4399Z" fill="url(#paint8_linear_188_406)"/>
<defs>
<linearGradient id="paint0_linear_188_406" x1="0.660156" y1="17.9399" x2="173.7" y2="17.9399" gradientUnits="userSpaceOnUse">
<stop stop-color="#653A18"/>
<stop offset="0.5" stop-color="#924300"/>
<stop offset="1" stop-color="#FF9B1F"/>
</linearGradient>
<linearGradient id="paint1_linear_188_406" x1="0.65961" y1="17.94" x2="173.7" y2="17.94" gradientUnits="userSpaceOnUse">
<stop stop-color="#653A18"/>
<stop offset="0.5" stop-color="#924300"/>
<stop offset="1" stop-color="#FF9B1F"/>
</linearGradient>
<linearGradient id="paint2_linear_188_406" x1="0.660546" y1="17.9399" x2="173.701" y2="17.9399" gradientUnits="userSpaceOnUse">
<stop stop-color="#653A18"/>
<stop offset="0.5" stop-color="#924300"/>
<stop offset="1" stop-color="#FF9B1F"/>
</linearGradient>
<linearGradient id="paint3_linear_188_406" x1="0.659375" y1="17.9399" x2="173.699" y2="17.9399" gradientUnits="userSpaceOnUse">
<stop stop-color="#653A18"/>
<stop offset="0.5" stop-color="#924300"/>
<stop offset="1" stop-color="#FF9B1F"/>
</linearGradient>
<linearGradient id="paint4_linear_188_406" x1="0.660004" y1="17.94" x2="173.7" y2="17.94" gradientUnits="userSpaceOnUse">
<stop stop-color="#653A18"/>
<stop offset="0.5" stop-color="#924300"/>
<stop offset="1" stop-color="#FF9B1F"/>
</linearGradient>
<linearGradient id="paint5_linear_188_406" x1="0.660495" y1="17.9398" x2="173.7" y2="17.9398" gradientUnits="userSpaceOnUse">
<stop stop-color="#653A18"/>
<stop offset="0.5" stop-color="#924300"/>
<stop offset="1" stop-color="#FF9B1F"/>
</linearGradient>
<linearGradient id="paint6_linear_188_406" x1="0.660741" y1="17.9399" x2="173.7" y2="17.9399" gradientUnits="userSpaceOnUse">
<stop stop-color="#653A18"/>
<stop offset="0.5" stop-color="#924300"/>
<stop offset="1" stop-color="#FF9B1F"/>
</linearGradient>
<linearGradient id="paint7_linear_188_406" x1="0.660411" y1="17.94" x2="173.701" y2="17.94" gradientUnits="userSpaceOnUse">
<stop stop-color="#653A18"/>
<stop offset="0.5" stop-color="#924300"/>
<stop offset="1" stop-color="#FF9B1F"/>
</linearGradient>
<linearGradient id="paint8_linear_188_406" x1="0.659845" y1="17.9399" x2="173.701" y2="17.9399" gradientUnits="userSpaceOnUse">
<stop stop-color="#653A18"/>
<stop offset="0.5" stop-color="#924300"/>
<stop offset="1" stop-color="#FF9B1F"/>
</linearGradient>
</defs>
</svg>
