<svg width="22" height="121" viewBox="0 0 22 121" fill="none" xmlns="http://www.w3.org/2000/svg">
<path d="M21.3185 8.29965H20.3885C20.0686 8.29965 19.8485 8.25967 19.7485 8.15967C19.6385 8.06967 19.5785 7.86965 19.5785 7.54965V2.56967H12.0785V7.39966H11.1486C10.8286 7.39966 10.6085 7.35967 10.4985 7.25967C10.3885 7.16967 10.3285 6.95966 10.3285 6.64966V2.56967H1.11853C0.79853 2.56967 0.578516 2.50966 0.478516 2.39966C0.368516 2.28966 0.308594 2.06966 0.308594 1.74966V0.159668H20.4985C20.8185 0.159668 21.0386 0.209651 21.1486 0.329651C21.2586 0.449651 21.3185 0.649675 21.3185 0.979675V8.29965Z" fill="black"/>
<path d="M18.4684 11.2998C19.5084 11.2998 20.2485 11.5098 20.6785 11.9498C21.1085 12.3798 21.3284 13.1098 21.3284 14.1598V18.7798C21.3284 19.8198 21.1085 20.5498 20.6785 20.9898C20.2485 21.4298 19.5084 21.6398 18.4684 21.6398H3.16846C2.12846 21.6398 1.39837 21.4298 0.958374 20.9898C0.518374 20.5498 0.318359 19.8198 0.318359 18.7798V14.1598C0.318359 13.1198 0.528374 12.3798 0.958374 11.9498C1.38837 11.5198 2.12846 11.2998 3.16846 11.2998H18.4684ZM3.76843 13.6998C3.14843 13.6998 2.70836 13.7798 2.44836 13.9398C2.18836 14.0998 2.05847 14.4898 2.05847 15.1098V17.8098C2.05847 18.4298 2.18836 18.8198 2.44836 18.9798C2.70836 19.1398 3.14843 19.2198 3.76843 19.2198H17.8684C18.4884 19.2198 18.9284 19.1398 19.1884 18.9798C19.4484 18.8198 19.5784 18.4298 19.5784 17.8098V15.1098C19.5784 14.4898 19.4484 14.0998 19.1884 13.9398C18.9284 13.7798 18.4884 13.6998 17.8684 13.6998H3.76843Z" fill="black"/>
<path d="M0.318359 25.8799H20.5084C20.8284 25.8799 21.0484 25.9299 21.1584 26.0499C21.2684 26.1699 21.3284 26.3699 21.3284 26.6999V28.2899H2.06836V34.6199H1.13843C0.818428 34.6199 0.598413 34.5599 0.498413 34.4499C0.398413 34.3399 0.328369 34.1199 0.328369 33.7999V25.8799H0.318359Z" fill="black"/>
<path d="M0.318359 37.5195H20.5084C20.8284 37.5195 21.0484 37.5695 21.1584 37.6895C21.2684 37.8095 21.3284 38.0095 21.3284 38.3395V39.9295H2.06836V46.2596H1.13843C0.818428 46.2596 0.598413 46.1995 0.498413 46.0895C0.398413 45.9795 0.328369 45.7595 0.328369 45.4395V37.5195H0.318359Z" fill="black"/>
<path d="M18.4684 49.0996C19.5084 49.0996 20.2485 49.3096 20.6785 49.7496C21.1085 50.1796 21.3284 50.9096 21.3284 51.9596V56.5796C21.3284 57.6196 21.1085 58.3496 20.6785 58.7896C20.2485 59.2296 19.5084 59.4396 18.4684 59.4396H3.16846C2.12846 59.4396 1.39837 59.2296 0.958374 58.7896C0.518374 58.3496 0.318359 57.6196 0.318359 56.5796V51.9596C0.318359 50.9196 0.528374 50.1796 0.958374 49.7496C1.38837 49.3196 2.12846 49.0996 3.16846 49.0996H18.4684ZM3.76843 51.4996C3.14843 51.4996 2.70836 51.5796 2.44836 51.7396C2.18836 51.8996 2.05847 52.2896 2.05847 52.9096V55.6096C2.05847 56.2296 2.18836 56.6196 2.44836 56.7796C2.70836 56.9396 3.14843 57.0196 3.76843 57.0196H17.8684C18.4884 57.0196 18.9284 56.9396 19.1884 56.7796C19.4484 56.6196 19.5784 56.2296 19.5784 55.6096V52.9096C19.5784 52.2896 19.4484 51.8996 19.1884 51.7396C18.9284 51.5796 18.4884 51.4996 17.8684 51.4996H3.76843Z" fill="black"/>
<path d="M9.70874 72.8595L12.6788 72.3495V72.1695L9.70874 71.6895L1.12878 69.3195C0.808784 69.2395 0.58877 69.1295 0.48877 69.0095C0.37877 68.8795 0.318726 68.6595 0.318726 68.3395V66.3295L20.5088 62.6695C21.0488 62.5495 21.3187 62.7495 21.3187 63.2695V64.8895L6.67883 67.4095L3.07874 68.0095V68.1895L6.67883 68.9095L15.2588 71.2495C15.3588 71.2895 15.4588 71.3595 15.5588 71.4695C15.6588 71.5795 15.7087 71.7095 15.7087 71.8795V73.4995L6.67883 75.6295L3.07874 76.3795V76.5595L6.67883 77.1295L20.5088 79.4095C20.8288 79.4695 21.0488 79.5795 21.1588 79.7195C21.2688 79.8695 21.3287 80.1095 21.3287 80.4295V81.8995L1.13879 78.2995C0.818794 78.2195 0.59876 78.1095 0.47876 77.9895C0.35876 77.8595 0.298828 77.6295 0.298828 77.3095V75.1795L9.71875 72.8695L9.70874 72.8595Z" fill="black"/>
<path d="M21.3184 101.3H3.16846C2.12846 101.3 1.39837 101.08 0.958374 100.65C0.528374 100.22 0.318359 99.4796 0.318359 98.4396V93.6696C0.318359 92.6296 0.528374 91.8996 0.958374 91.4596C1.38837 91.0196 2.12846 90.8096 3.16846 90.8096H20.5084C20.8284 90.8096 21.0484 90.8696 21.1584 90.9796C21.2684 91.0896 21.3284 91.2996 21.3284 91.6296V93.2196H3.77844C3.15844 93.2196 2.71837 93.2996 2.45837 93.4596C2.19837 93.6196 2.06836 94.0096 2.06836 94.6296V97.4796C2.06836 98.0996 2.19837 98.4896 2.45837 98.6496C2.71837 98.8096 3.15844 98.8896 3.77844 98.8896H20.5184C20.8384 98.8896 21.0585 98.9396 21.1685 99.0596C21.2785 99.1796 21.3384 99.3796 21.3384 99.6996V101.29L21.3184 101.3Z" fill="black"/>
<path d="M3.16846 113.539C2.12846 113.539 1.39837 113.319 0.958374 112.889C0.528374 112.459 0.318359 111.719 0.318359 110.679V107.019C0.318359 106.439 0.458413 106.019 0.748413 105.779C1.03841 105.529 1.46846 105.339 2.04846 105.219V109.719C2.04846 110.339 2.17835 110.729 2.43835 110.889C2.69835 111.049 3.13842 111.129 3.75842 111.129H8.61841C9.23841 111.129 9.67835 111.039 9.93835 110.869C10.1984 110.699 10.3284 110.269 10.3284 109.599V108.069C10.3284 107.029 10.5384 106.289 10.9784 105.859C11.4084 105.429 12.1384 105.209 13.1884 105.209H18.4684C19.5084 105.209 20.2485 105.419 20.6785 105.859C21.1085 106.289 21.3284 107.029 21.3284 108.069V111.639C21.3284 112.219 21.1784 112.629 20.8884 112.889C20.5984 113.139 20.1684 113.329 19.5884 113.449V109.039C19.5884 108.419 19.4584 108.029 19.1984 107.869C18.9384 107.709 18.4984 107.629 17.8784 107.629H13.7985C13.1785 107.629 12.7384 107.709 12.4784 107.869C12.2184 108.029 12.0884 108.419 12.0884 109.039V110.689C12.0884 111.729 11.8784 112.459 11.4384 112.899C11.0084 113.329 10.2684 113.549 9.22839 113.549H3.16846V113.539Z" fill="black"/>
<path d="M0.318359 120.14V118.31C0.318359 117.99 0.368403 117.77 0.488403 117.66C0.598403 117.55 0.808418 117.49 1.12842 117.49H2.71838V119.32C2.71838 119.64 2.66847 119.85 2.55847 119.96C2.44847 120.07 2.22845 120.13 1.90845 120.13H0.318359V120.14ZM21.3184 119.9H5.92847C5.60847 119.9 5.38844 119.84 5.27844 119.73C5.16844 119.62 5.1084 119.4 5.1084 119.08V117.49H20.4984C20.8184 117.49 21.0384 117.54 21.1484 117.66C21.2584 117.78 21.3184 117.98 21.3184 118.31V119.9Z" fill="black"/>
</svg>
